<mxfile host="app.diagrams.net" modified="2023-05-23T10:00:16.290Z" agent="Mozilla/5.0 (Windows NT 10.0; Win64; x64) AppleWebKit/537.36 (KHTML, like Gecko) Chrome/113.0.0.0 Safari/537.36 Edg/113.0.1774.50" etag="mHvcPfFdJ0TYR30jiwBv" version="21.3.2" type="github">
  <diagram name="Page-1" id="19rDWbAxhhhVggRc936I">
    <mxGraphModel dx="864" dy="611" grid="1" gridSize="10" guides="1" tooltips="1" connect="1" arrows="1" fold="1" page="1" pageScale="1" pageWidth="827" pageHeight="1169" math="0" shadow="0">
      <root>
        <mxCell id="0" />
        <mxCell id="1" parent="0" />
        <mxCell id="xSQJErV0wq-ZxOXCGKMl-6" style="edgeStyle=orthogonalEdgeStyle;rounded=0;orthogonalLoop=1;jettySize=auto;html=1;entryX=0.5;entryY=1;entryDx=0;entryDy=0;" edge="1" parent="1" source="xSQJErV0wq-ZxOXCGKMl-1" target="xSQJErV0wq-ZxOXCGKMl-3">
          <mxGeometry relative="1" as="geometry" />
        </mxCell>
        <mxCell id="xSQJErV0wq-ZxOXCGKMl-1" value="Product Group" style="rounded=1;whiteSpace=wrap;html=1;" vertex="1" parent="1">
          <mxGeometry x="410" y="240" width="120" height="60" as="geometry" />
        </mxCell>
        <mxCell id="xSQJErV0wq-ZxOXCGKMl-4" style="edgeStyle=orthogonalEdgeStyle;rounded=0;orthogonalLoop=1;jettySize=auto;html=1;entryX=0.5;entryY=1;entryDx=0;entryDy=0;" edge="1" parent="1" source="xSQJErV0wq-ZxOXCGKMl-2" target="xSQJErV0wq-ZxOXCGKMl-3">
          <mxGeometry relative="1" as="geometry" />
        </mxCell>
        <mxCell id="xSQJErV0wq-ZxOXCGKMl-2" value="Outlets" style="rounded=1;whiteSpace=wrap;html=1;" vertex="1" parent="1">
          <mxGeometry x="610" y="240" width="120" height="60" as="geometry" />
        </mxCell>
        <mxCell id="xSQJErV0wq-ZxOXCGKMl-3" value="Schemes&lt;br&gt;" style="rounded=1;whiteSpace=wrap;html=1;" vertex="1" parent="1">
          <mxGeometry x="510" y="70" width="120" height="60" as="geometry" />
        </mxCell>
        <mxCell id="xSQJErV0wq-ZxOXCGKMl-8" style="edgeStyle=orthogonalEdgeStyle;rounded=0;orthogonalLoop=1;jettySize=auto;html=1;entryX=0.5;entryY=1;entryDx=0;entryDy=0;" edge="1" parent="1" source="xSQJErV0wq-ZxOXCGKMl-7" target="xSQJErV0wq-ZxOXCGKMl-1">
          <mxGeometry relative="1" as="geometry" />
        </mxCell>
        <mxCell id="xSQJErV0wq-ZxOXCGKMl-7" value="Products" style="shape=cube;whiteSpace=wrap;html=1;boundedLbl=1;backgroundOutline=1;darkOpacity=0.05;darkOpacity2=0.1;" vertex="1" parent="1">
          <mxGeometry x="410" y="380" width="120" height="80" as="geometry" />
        </mxCell>
        <mxCell id="xSQJErV0wq-ZxOXCGKMl-10" style="edgeStyle=orthogonalEdgeStyle;rounded=0;orthogonalLoop=1;jettySize=auto;html=1;entryX=0.5;entryY=1;entryDx=0;entryDy=0;" edge="1" parent="1" source="xSQJErV0wq-ZxOXCGKMl-9" target="xSQJErV0wq-ZxOXCGKMl-2">
          <mxGeometry relative="1" as="geometry" />
        </mxCell>
        <mxCell id="xSQJErV0wq-ZxOXCGKMl-9" value="Followers" style="shape=cube;whiteSpace=wrap;html=1;boundedLbl=1;backgroundOutline=1;darkOpacity=0.05;darkOpacity2=0.1;" vertex="1" parent="1">
          <mxGeometry x="610" y="390" width="120" height="80" as="geometry" />
        </mxCell>
      </root>
    </mxGraphModel>
  </diagram>
</mxfile>
